<?xml version="1.0" encoding="UTF-8"?>
<svg id="_图层_1" data-name="图层 1" xmlns="http://www.w3.org/2000/svg" viewBox="0 0 800 800">
  <defs>
    <style>
      .cls-1 {
        fill: #009245;
      }

      .cls-2 {
        fill: #fff;
      }

      .cls-3 {
        fill: #12172a;
      }

      .cls-4 {
        fill: #8cc63f;
      }
    </style>
  </defs>
  <rect class="cls-3" x="-1.83" y="-1.36" width="803.47" height="802.88"/>
  <g>
    <ellipse class="cls-2" cx="400" cy="636.82" rx=".7" ry="1.13" transform="translate(-350.9 677.93) rotate(-61)"/>
    <g>
      <path class="cls-2" d="m354.97,582.65c.02,8.66-6.99,15.7-15.66,15.71h-2.63c-8.66.02-15.7-6.99-15.71-15.65h0s-.06-33.2-.06-33.2c-.02-8.66,6.99-15.7,15.66-15.71h2.63c8.66-.02,15.7,6.99,15.71,15.65h0s.06,33.2.06,33.2Zm-12.45-33.73c0-2.22-1.79-4.02-4.01-4.03h-.96c-2.22,0-4.02,1.79-4.03,4.01h0l-.06,34.7c0,2.22,1.79,4.02,4.01,4.03h.96c2.22,0,4.02-1.79,4.03-4.01h0s.06-34.7.06-34.7Z"/>
      <path class="cls-2" d="m375.73,597.38l-8.81-1.36c-.83-.13-1.22-.62-1.15-1.46.22-2.82.17-5.64.42-8.44.28-3.24.2-6.56-.24-9.96-.03-.28-.17-.5-.4-.67-.81-.58-1.26-.56-1.33.06-.21-8.05-.2-16.12.03-24.21.1-3.59.48-7.68,2.63-10.52,3.16-4.16,7.45-6.5,12.87-7,1.97-.19,3.69-.08,5.16.31,11.17,2.92,13.2,11.73,13.22,22.01.03,13.63,0,27.41-.11,41.36,0,.33-.27.6-.6.6h0l-10.94-.02c-.37,0-.58-.18-.61-.55-.13-1.32.17-2.65.14-3.95-.28-13.9-.31-27.95-.08-42.14.02-1.55-.35-3.08-1.11-4.59-.87-1.73-2.45-1.77-4.14-1.79-1.58,0-3.15.3-3.59,2.05-.41,1.64-.61,3.31-.58,5,.17,14.88.09,29.77-.25,44.66,0,.21-.08.39-.22.54-.38.42-.49.45-.31.07Z"/>
      <path class="cls-2" d="m512.2,585.55c1.56,2.43,6.22,2.85,7.76.43,1.54-2.43.89-8.93.69-11.76-.03-.42-.35-.75-.76-.81l-2.15-.29c-.45-.06-.71-.31-.78-.76-.4-2.61-.52-5.36-.38-8.26.02-.35.31-.63.67-.64l13.68-.08c.8,0,1.28.38,1.43,1.17.2,1.06.3,2.12.31,3.18.05,5.01.04,10.03-.02,15.06-.02,2.23-.56,4.41-1.62,6.55-3.85,7.79-10.16,10.74-18.94,8.85-3.04-.66-6.33-1.67-8.35-4.27-2.69-3.47-4.06-6.9-4.13-10.29-.13-6.61-.08-16.57.15-29.88.07-4.36.15-6.82.24-7.4.86-5.44,4.55-9.65,9.75-11.31,3.08-.98,5.82-1.41,8.24-1.27,1.51.08,3.2.56,5.05,1.43,8.19,3.85,10.04,11.27,8.85,19.37-.11.75-.76,1.3-1.52,1.28l-8.3-.17c-.61,0-1.1-.51-1.09-1.12,0-.04,0-.08,0-.12.31-2.51-.28-5.33-1.76-8.45-.8-1.68-3.63-1.5-5.02-1.02-1.85.64-2.49,3.84-2.51,5.58-.08,10.28-.12,21.18-.1,32.68,0,.92.2,1.7.61,2.34Z"/>
      <path class="cls-2" d="m621.23,582.86l-7.04-.03c-.8,0-1.46.65-1.47,1.46,0,0,0,0,0,0v12.48c0,.56-.41,1.04-.97,1.13-2.84.44-7.68.8-10.56-.45-.29-.13-.44-.35-.44-.67-.1-18.32-.04-33.99.17-47.03.09-5.3,1.81-9.26,5.17-11.88,3.86-3.03,10.17-4.99,15.08-3.77,6.96,1.72,13.04,7.88,13.1,15.49.14,16.22.14,31.91,0,47.07,0,.66-.51,1.21-1.16,1.26-3.41.31-6.78.27-10.1-.12-.67-.08-1.16-.65-1.14-1.32l.29-12.67c.01-.52-.39-.94-.91-.96,0,0-.02,0-.03,0Zm-6.68-10.81l5.5.02c1.05,0,1.91-.84,1.91-1.89h0s.03-19.24.03-19.24c0-3.39-1.74-6.15-3.91-6.16h-1.45c-2.17,0-3.93,2.75-3.93,6.14l-.03,19.23c0,1.05.85,1.9,1.89,1.9Z"/>
      <path class="cls-2" d="m433.92,536.76c0-1,.81-1.81,1.81-1.81h15.11c9.22,0,16.7,6.88,16.7,15.36h0v32.47c0,8.48-7.47,15.36-16.7,15.36h-15.11c-1,0-1.81-.81-1.81-1.81h0v-59.56Zm21.07,15.02c-.02-2.05-.53-3.47-1.53-4.27-1.4-1.12-4.23-1.33-5.98-1.08-1.08.15-1.62,1.06-1.62,2.73,0,12.28.01,24.5.03,36.65,0,.62.5,1.13,1.12,1.14,1.61.05,3.17-.03,4.7-.24,3.72-.49,3.48-4.41,3.47-7.32-.03-10-.1-19.21-.19-27.63Z"/>
      <path class="cls-2" d="m571.02,546.34l-7.64-.25c-.46-.02-.85-.33-.95-.78-.64-2.73-.76-5.73-.38-9.01.03-.3.21-.57.48-.72.84-.47,1.78-.69,2.82-.65,8.51.27,16.62.23,24.33-.1,1.74-.08,2.77.77,3.07,2.53.45,2.68.4,5.27-.17,7.79-.18.8-.89,1.36-1.71,1.36l-6.03-.03c-.77,0-1.15.38-1.15,1.14l-.06,48.89c0,.99-.49,1.52-1.48,1.59-3.72.24-7.16.2-10.33-.12-.34-.04-.6-.32-.6-.66.1-14.27.13-28.5.07-42.7,0-2.51.11-5.18.2-7.75.01-.33-.15-.49-.47-.51Z"/>
      <path class="cls-2" d="m139.4,546.8l.09,12.78c0,.72.58,1.29,1.29,1.3l10.46.1c.57,0,1.04.44,1.09,1.01.27,3.09.2,6.3-.23,9.6-.06.42-.41.74-.84.74l-11.03.1c-.43,0-.77.36-.77.78h0c.06,6.67.12,13.31.16,19.92,0,1.23-.13,2.45-.41,3.66-.17.78-.66,1.2-1.47,1.26-3.45.27-6.61.2-9.48-.21-.71-.1-1.24-.7-1.24-1.42l-.11-59.78c0-.95.77-1.73,1.72-1.73,0,0,.01,0,.02,0,7.07.05,14.28.09,21.62.1,1.84,0,3.5.19,4.97.54.37.09.64.41.67.79.19,2.73-.16,5.26-.42,8.06-.13,1.43-.88,2.09-2.23,1.99-4.55-.34-8.97-.41-13.27-.23-.39.02-.58.22-.58.62Z"/>
      <path class="cls-2" d="m192.23,589.05c.31,2.48.23,5.01-.24,7.58-.06.33-.23.58-.51.76-.6.39-1.28.59-2.03.6-7.84.12-15.41.12-22.7-.02-.88-.02-1.66-.12-2.34-.31-.43-.12-.65-.4-.65-.85-.11-19.57-.14-38.17-.09-55.79,0-1.56.1-3.16.28-4.81.04-.38.33-.68.71-.74,2.99-.47,6.03-.56,9.12-.29,1.26.12,1.89.8,1.89,2.06.08,16.39.09,32.47.05,48.24,0,.76.6,1.37,1.36,1.38,0,0,.02,0,.03,0,4.29-.06,8.55.03,12.77.27,1.41.08,2.19.72,2.34,1.92Z"/>
      <path class="cls-2" d="m213.5,586.73c.12.17.32.27.53.26,5.13-.2,10.25-.11,15.35.27.66.05,1.19.57,1.26,1.22.3,2.74.3,5.55.02,8.43-.08.71-.47,1.06-1.18,1.06l-27.5.05c-.44,0-.79-.35-.79-.79l-.02-60.94c0-.76.61-1.37,1.37-1.37,0,0,0,0,0,0l26.94.24c.36,0,.66.27.71.63.39,3.11.41,6.05.05,8.8-.14,1.08-1.09,1.86-2.17,1.78-4.68-.34-9.31-.34-13.88-.02-.65.05-1.16.59-1.15,1.25l.13,11.95c0,.72.58,1.29,1.29,1.31l11.78.3c.57.01,1.03.49,1.02,1.06l-.09,8.16c0,.99-.81,1.79-1.81,1.8l-11.51.11c-.45,0-.82.37-.82.83,0,4.05.03,8.2.08,12.44,0,.44.13.83.38,1.18Z"/>
      <path class="cls-2" d="m253.06,546.31c-.45-.02-.84.3-.9.74-.55,4.1-.67,8.32-.34,12.65.05.66.59,1.17,1.26,1.19l11.44.23c1.06.02,1.6.56,1.61,1.62l.1,7.08c.02,1.3-.62,1.99-1.92,2.06l-12.01.65c-.3.02-.54.27-.54.58l.04,12.94c0,.34.27.61.6.63l16.33.63c.26,0,.48.19.53.44.68,2.98.76,6.03.24,9.14-.05.28-.2.48-.47.59-.88.36-1.82.54-2.83.55-7.63.03-16.35,0-26.15-.09-.26,0-.47-.22-.46-.49,0-.03,0-.06,0-.09.11-.47.17-.94.17-1.42.14-21.71.24-41.49.31-59.35,0-.48.35-.88.82-.95,1.67-.25,3.32-.6,5.03-.57,5.86.1,12.12.1,18.8,0,1.05-.02,2.18.1,3.38.34.78.16,1.34.84,1.34,1.63l.03,7.61c0,.82-.63,1.5-1.45,1.55-4.68.32-9.67.35-14.99.1Z"/>
      <path class="cls-2" d="m305.74,568.25c2.72,2.41,4.51,5.36,5.36,8.86,1.55,6.33,1.86,13,.95,20.01-.06.45-.42.8-.87.85-3.19.35-6.47.28-9.86-.23-.44-.07-.78-.44-.79-.89-.08-2.7-.1-5.48-.07-8.36.04-3.6-.78-7.14-1.73-10.6-1.06-3.83-3.32-4.55-6.86-5.23-.96-.18-1.44.22-1.44,1.2l-.03,23.46c0,.33-.25.6-.58.62-3.82.24-7.57.21-11.24-.09-.32-.02-.48-.2-.48-.52l.1-60.26c0-.74.55-1.37,1.28-1.48,2.72-.39,6.92-1.11,9.65-.09.61.23,1.02.81,1.03,1.47l.29,22.87c0,.48.41.86.89.86.04,0,.08,0,.11,0,5.87-.89,7.55-4.81,7.82-10.29.22-4.47.34-8.9.37-13.3,0-.73.53-1.36,1.25-1.49,2.95-.55,5.82-.72,8.63-.51.45.03.86.3,1.06.7,1.11,2.15,1.07,3.78,1.26,6.82.35,6.04-.46,11.9-2.44,17.59-.34.97-.87,1.82-1.61,2.56-.62.63-1.29,1.25-2.01,1.85-1.02.86-1.15,2.38-.29,3.39.08.09.16.18.25.25Z"/>
      <rect class="cls-2" x="451.86" y="560.48" width="63.1" height="12.4" rx="2.48" ry="2.48" transform="translate(-84.12 1049.1) rotate(-89.9)"/>
      <path class="cls-2" d="m544.14,598.15c-1.26,0-2.29-1.02-2.29-2.29l-.1-56.49c0-2.42,1.27-4.38,2.85-4.38l6.65-.02c1.58,0,2.87,1.95,2.87,4.37h0s.1,56.5.1,56.5c0,1.26-1.02,2.29-2.29,2.29l-7.8.02Z"/>
      <path class="cls-2" d="m656.51,586.49c0,.33.27.6.59.6.01,0,.02,0,.04,0,4.58-.21,9.47-.12,14.68.26.54.04.97.46,1.04.99.34,2.81.32,5.58-.07,8.3-.1.67-.66,1.17-1.33,1.2-8.61.33-17.25.33-25.92,0-.62-.02-.93-.35-.93-.97l.03-59.64c0-.84.6-1.56,1.42-1.72,3.06-.58,6.1-.6,9.13-.07.74.13,1.27.77,1.27,1.52l.05,49.53Z"/>
      <path class="cls-2" d="m375.73,597.38c-3.83.69-7.45.72-10.84.11-.37-.06-.65-.39-.65-.77l-.03-21.17c.08-.62.52-.64,1.33-.06.23.17.37.39.4.67.44,3.4.51,6.72.24,9.96-.24,2.79-.2,5.62-.42,8.44-.06.84.32,1.32,1.15,1.46l8.81,1.36Z"/>
      <path class="cls-2" d="m372.07,569.36c-.66-.33-8.02,1.98-8.02,1.98v26.77h12.31v-12.07l-4.3-16.69Z"/>
    </g>
    <g>
      <path class="cls-2" d="m207.98,631.24c-.55,0-1.06-.11-1.53-.33-.47-.22-.83-.55-1.09-.99-.26-.44-.41-.93-.45-1.47-.04-.54-.01-1.07.08-1.61l1.65-9.46h-2.5v-1.49h4.44l-1.96,11.22c-.06.29-.08.59-.08.89s.05.59.14.86.26.49.5.65c.23.17.5.25.81.25s.59-.09.87-.28c.28-.19.5-.42.67-.69.17-.28.31-.56.42-.85l1.47.66c-.19.47-.45.91-.78,1.32-.33.41-.73.74-1.21.97-.48.24-.95.35-1.44.35Z"/>
      <path class="cls-2" d="m220.07,631.24c-.52,0-1.01-.1-1.46-.3-.45-.2-.8-.51-1.05-.93-.26-.42-.4-.89-.44-1.39-.04-.51-.02-1.02.06-1.53l.97-5.47h-2.52v-1.49h4.46l-1.28,7.23c-.05.36-.07.72-.04,1.07s.16.67.4.93c.24.26.54.39.9.39.29,0,.56-.09.82-.28.25-.19.46-.41.62-.67.16-.26.29-.54.4-.83l1.49.62c-.18.47-.43.91-.74,1.32-.32.41-.71.74-1.18.97-.47.24-.94.35-1.41.35Zm-.04-13.04c-.22,0-.44-.05-.65-.14-.21-.1-.37-.25-.48-.46-.1-.21-.16-.44-.16-.67s.05-.46.16-.67c.1-.21.26-.37.48-.48.21-.1.43-.15.65-.15.24,0,.46.05.67.15.21.1.37.26.47.48.1.21.16.44.16.67s-.05.46-.16.67c-.1.21-.26.37-.47.46-.21.1-.44.14-.67.14Z"/>
      <path class="cls-2" d="m225.85,631.07l1.92-10.95h1.67l-.25,1.36c.07-.07.13-.14.19-.23.37-.41.81-.73,1.3-.96s1.01-.34,1.53-.34c.45,0,.88.1,1.27.31.39.21.69.5.9.88s.35.79.42,1.23c.08.44.1.89.08,1.35-.02.46-.07.92-.13,1.37l-1.05,5.97h-1.67l1.1-6.22c.07-.39.1-.77.1-1.15s-.06-.74-.18-1.09c-.12-.34-.32-.63-.61-.85-.29-.22-.63-.33-1.01-.33-.45,0-.89.14-1.31.41-.42.28-.73.63-.94,1.05-.21.39-.35.79-.43,1.2l-.02.12v.04l-1.2,6.8h-1.67Z"/>
      <path class="cls-2" d="m237.84,631.07l2.67-15.19h1.67l-1.55,8.88c.25-.15.49-.31.73-.48.24-.17.48-.34.72-.52.24-.17.48-.35.71-.53.23-.18.47-.36.7-.54.23-.18.46-.37.69-.57s.44-.4.65-.61c.21-.21.41-.42.62-.65.21-.23.34-.48.39-.75h1.76c-.05.33-.2.63-.42.9-.23.27-.46.53-.69.78-.24.25-.48.5-.72.73-.25.23-.5.46-.76.69-.26.23-.53.45-.81.67-.14.12-.28.24-.43.35,1.58,3.39,2.28,5.66,2.09,6.82h-1.67c.18-1.01-.39-2.94-1.71-5.81-.25.18-.49.35-.72.52-.18.14-.36.27-.54.39l-.17.1-.14.1c-.21.15-.42.3-.64.43l-.74,4.26h-1.67Z"/>
      <path class="cls-2" d="m256.02,631.24c-.52,0-1.01-.1-1.46-.3-.45-.2-.8-.51-1.05-.93-.26-.42-.4-.89-.44-1.39-.04-.51-.02-1.02.06-1.53l.97-5.47h-2.52v-1.49h4.46l-1.28,7.23c-.05.36-.07.72-.04,1.07s.16.67.4.93c.24.26.54.39.9.39.29,0,.56-.09.82-.28.25-.19.46-.41.62-.67.16-.26.29-.54.4-.83l1.49.62c-.18.47-.43.91-.74,1.32-.32.41-.71.74-1.18.97-.47.24-.94.35-1.41.35Zm-.04-13.04c-.22,0-.44-.05-.65-.14-.21-.1-.37-.25-.48-.46-.1-.21-.16-.44-.16-.67s.05-.46.16-.67c.1-.21.26-.37.48-.48.21-.1.43-.15.65-.15.24,0,.46.05.67.15.21.1.37.26.47.48.1.21.16.44.16.67s-.05.46-.16.67c-.1.21-.26.37-.47.46-.21.1-.44.14-.67.14Z"/>
      <path class="cls-2" d="m261.8,631.07l1.92-10.95h1.67l-.25,1.36c.07-.07.13-.14.19-.23.37-.41.81-.73,1.3-.96s1.01-.34,1.53-.34c.45,0,.88.1,1.27.31.39.21.69.5.9.88s.35.79.42,1.23c.08.44.1.89.08,1.35-.02.46-.07.92-.13,1.37l-1.05,5.97h-1.67l1.1-6.22c.07-.39.1-.77.1-1.15s-.06-.74-.18-1.09c-.12-.34-.32-.63-.61-.85-.29-.22-.63-.33-1.01-.33-.45,0-.89.14-1.31.41-.42.28-.73.63-.94,1.05-.21.39-.35.79-.43,1.2l-.02.12v.04l-1.2,6.8h-1.67Z"/>
      <path class="cls-2" d="m277.01,635.47c-.57,0-1.11-.08-1.63-.24s-.96-.43-1.32-.83c-.36-.39-.6-.85-.72-1.37l1.51-.6c.07.32.21.6.41.85s.46.43.77.54c.31.11.64.17.98.17.37,0,.74-.08,1.1-.25.37-.17.68-.4.94-.71s.46-.64.61-.99.25-.71.32-1.09l.23-1.28c-.05.07-.12.14-.19.23-.36.43-.79.76-1.3.99-.51.24-1.03.35-1.55.35s-1.01-.13-1.45-.39c-.44-.26-.76-.62-.97-1.09-.21-.46-.33-.95-.38-1.47-.05-.52-.04-1.04.03-1.58.07-.54.15-1.07.25-1.61.11-.59.24-1.18.4-1.78.16-.59.43-1.15.82-1.68.39-.53.87-.94,1.45-1.24s1.17-.44,1.78-.44c.45,0,.88.1,1.27.31.39.21.69.5.9.89.12.22.23.46.31.72l.31-1.76h1.67l-1.94,11.07c-.11.55-.28,1.09-.52,1.61-.23.52-.56,1-.99,1.43-.43.43-.91.74-1.46.94-.54.2-1.09.3-1.64.3Zm.95-5.72c.34,0,.68-.08,1.02-.24.34-.16.63-.39.87-.68.24-.3.43-.61.57-.94.1-.28.18-.55.25-.83l.19-1.01.16-1.05c.07-.39.11-.77.11-1.17,0-.39-.04-.77-.14-1.14-.1-.36-.3-.66-.6-.9-.3-.23-.64-.35-1.02-.35-.44,0-.87.12-1.28.37-.41.25-.75.57-1,.97-.25.4-.43.82-.53,1.25-.1.43-.19.87-.27,1.31-.07.37-.13.75-.2,1.13-.06.38-.08.75-.06,1.13s.1.73.24,1.06c.14.34.36.6.67.8.31.19.65.29,1.02.29Z"/>
      <path class="cls-2" d="m300.97,635.47c-.57,0-1.11-.08-1.63-.24s-.96-.43-1.32-.83c-.36-.39-.6-.85-.72-1.37l1.51-.6c.07.32.21.6.41.85s.46.43.77.54c.31.11.64.17.98.17.37,0,.74-.08,1.1-.25.37-.17.68-.4.94-.71s.46-.64.61-.99.25-.71.32-1.09l.23-1.26c-.07.08-.14.16-.21.25-.36.41-.79.73-1.29.96-.5.23-1.01.34-1.52.34-.45,0-.88-.1-1.27-.31-.39-.21-.69-.5-.9-.88s-.35-.79-.43-1.23c-.08-.44-.11-.89-.09-1.35.02-.46.07-.92.15-1.37l1.05-5.97h1.67l-1.1,6.22c-.07.39-.1.77-.1,1.15s.05.74.17,1.08c.11.34.31.63.61.85s.64.33,1.02.33c.45,0,.89-.14,1.31-.41s.73-.63.94-1.05c.19-.39.34-.78.43-1.18l.02-.19,1.2-6.8h1.67l-1.94,11.07c-.11.55-.28,1.09-.52,1.61-.23.52-.56,1-.99,1.43-.43.43-.91.74-1.46.94-.54.2-1.09.3-1.64.3Z"/>
      <path class="cls-2" d="m313.89,631.24c-.57,0-1.1-.1-1.61-.31-.51-.21-.92-.53-1.23-.96-.31-.43-.52-.92-.63-1.46-.11-.54-.13-1.09-.07-1.66.06-.57.15-1.15.26-1.73.08-.48.18-.97.3-1.47.12-.5.31-.97.57-1.44.26-.46.6-.87,1-1.23s.86-.62,1.35-.78c.5-.17,1.01-.25,1.53-.25.55,0,1.09.1,1.6.31.52.21.93.53,1.24.96.31.43.52.92.63,1.46.11.54.13,1.09.06,1.66-.07.57-.15,1.15-.25,1.73-.08.48-.18.97-.3,1.47-.12.5-.31.98-.58,1.44-.27.46-.61.87-1.01,1.23-.41.36-.86.62-1.36.78-.5.17-1,.25-1.5.25Zm.02-1.49c.44,0,.87-.12,1.29-.36.42-.24.75-.56,1-.97s.42-.83.53-1.26c.1-.43.2-.86.28-1.29l.02-.1.02-.19.04-.19.02-.19.08-.48c.05-.39.08-.77.06-1.14-.01-.37-.09-.73-.23-1.06-.14-.34-.36-.6-.67-.8-.31-.19-.65-.29-1.02-.29-.45,0-.89.12-1.3.36-.41.24-.75.57-1,.97s-.43.83-.53,1.26c-.1.43-.19.86-.27,1.29-.07.39-.13.77-.19,1.15-.06.38-.08.75-.06,1.13.01.37.09.73.23,1.06.14.34.36.6.66.8.3.19.65.29,1.03.29Z"/>
      <path class="cls-2" d="m325.13,631.24c-.45,0-.88-.1-1.27-.31-.39-.21-.69-.5-.9-.88s-.35-.79-.43-1.23c-.08-.44-.11-.89-.09-1.35.02-.46.07-.92.15-1.37l1.05-5.97h1.67l-1.1,6.22c-.07.39-.1.77-.1,1.15s.05.74.17,1.08c.11.34.31.63.61.85s.64.33,1.02.33c.45,0,.89-.14,1.31-.41s.73-.63.94-1.05c.21-.4.35-.81.43-1.22l.02-.1v-.04l1.2-6.8h1.67l-1.92,10.95h-1.67l.25-1.38c-.07.08-.14.16-.21.25-.36.41-.79.73-1.29.96-.5.23-1.01.34-1.52.34Z"/>
      <path class="cls-2" d="m334.94,631.07l1.92-10.95h1.67l-.33,1.92c.07-.12.14-.25.23-.37.32-.5.73-.9,1.24-1.23s1.05-.49,1.61-.49c.37,0,.73.08,1.07.25.34.16.61.41.81.72.19.32.29.67.29,1.05l-1.55.7c0-.36-.15-.65-.44-.89-.3-.23-.63-.35-1-.35-.51,0-.97.2-1.39.59s-.73.83-.92,1.31c-.19.47-.34.94-.43,1.42l-1.1,6.3h-1.67Z"/>
      <path class="cls-2" d="m362.13,631.24c-.45,0-.88-.1-1.27-.31s-.69-.5-.9-.89c-.12-.22-.23-.45-.31-.7l-.31,1.74h-1.67l2.66-15.19h1.67l-.99,5.64c.05-.07.12-.14.19-.23.36-.43.79-.76,1.29-.99s1.02-.35,1.54-.35,1.03.13,1.47.39c.44.26.76.62.97,1.08.21.46.33.95.38,1.47.05.52.04,1.04-.03,1.58-.07.54-.15,1.07-.25,1.61-.11.59-.25,1.18-.4,1.78-.16.59-.43,1.15-.82,1.68s-.87.94-1.45,1.24-1.17.45-1.78.45Zm-.27-1.49c.44,0,.87-.12,1.28-.37.41-.25.75-.57,1-.97.25-.4.43-.82.53-1.25.1-.43.19-.87.27-1.31l.02-.19.1-.56.02-.19.04-.21c.05-.37.08-.74.06-1.12-.01-.37-.09-.73-.23-1.06-.14-.34-.36-.6-.67-.8-.31-.19-.65-.29-1.02-.29-.34,0-.69.08-1.03.24s-.63.39-.87.68c-.24.3-.42.61-.56.94-.1.26-.18.53-.25.81l-.41,2.4c-.04.29-.06.57-.06.85,0,.4.05.78.15,1.15.1.37.3.66.59.9.29.24.63.35,1.03.35Z"/>
      <path class="cls-2" d="m370.89,631.07l1.92-10.95h1.67l-.33,1.92c.07-.12.14-.25.23-.37.32-.5.73-.9,1.24-1.23s1.05-.49,1.61-.49c.37,0,.73.08,1.07.25.34.16.61.41.81.72.19.32.29.67.29,1.05l-1.55.7c0-.36-.15-.65-.44-.89-.3-.23-.63-.35-1-.35-.51,0-.97.2-1.39.59s-.73.83-.92,1.31c-.19.47-.34.94-.43,1.42l-1.1,6.3h-1.67Z"/>
      <path class="cls-2" d="m385.02,631.24c-.52,0-1.01-.13-1.45-.39-.44-.26-.76-.62-.97-1.09-.21-.46-.33-.95-.38-1.47-.05-.52-.04-1.04.03-1.58.07-.54.15-1.07.25-1.61.11-.59.24-1.18.4-1.78.16-.59.43-1.15.82-1.68.39-.53.87-.94,1.45-1.24s1.17-.44,1.78-.44c.45,0,.88.1,1.27.31.39.21.69.5.9.89.12.22.23.45.31.7l.31-1.74h1.67l-1.3,7.35c-.25,1.45-.28,2.64-.08,3.6h-1.67c-.1-.48-.14-1.03-.12-1.65-.11.17-.23.32-.35.48-.36.43-.79.76-1.3.99-.51.24-1.03.35-1.55.35Zm.79-1.49c.34,0,.68-.08,1.02-.24.34-.16.63-.39.87-.68.24-.3.43-.61.57-.94.08-.22.15-.45.21-.68l.33-1.84.06-.37c.07-.39.11-.77.11-1.17,0-.39-.04-.77-.14-1.14-.1-.36-.3-.66-.6-.9-.3-.23-.64-.35-1.02-.35-.44,0-.87.12-1.28.37-.41.25-.75.57-1,.97-.25.4-.43.82-.53,1.25-.1.43-.19.87-.27,1.31-.07.37-.13.75-.2,1.13-.06.38-.08.75-.06,1.13s.1.73.24,1.06c.14.34.36.6.67.8.31.19.65.29,1.02.29Z"/>
      <path class="cls-2" d="m393.62,631.07l1.92-10.95h1.67l-.25,1.36c.07-.07.13-.14.19-.23.37-.41.81-.73,1.3-.96s1.01-.34,1.53-.34c.45,0,.88.1,1.27.31.39.21.69.5.9.88s.35.79.42,1.23c.08.44.1.89.08,1.35-.02.46-.07.92-.13,1.37l-1.05,5.97h-1.67l1.1-6.22c.07-.39.1-.77.1-1.15s-.06-.74-.18-1.09c-.12-.34-.32-.63-.61-.85-.29-.22-.63-.33-1.01-.33-.45,0-.89.14-1.31.41-.42.28-.73.63-.94,1.05-.21.39-.35.79-.43,1.2l-.02.12v.04l-1.2,6.8h-1.67Z"/>
      <path class="cls-2" d="m408.99,631.24c-.52,0-1.01-.13-1.45-.39-.44-.26-.76-.62-.97-1.09-.21-.46-.33-.95-.38-1.47-.05-.52-.04-1.04.03-1.58.07-.54.15-1.07.25-1.61.11-.59.24-1.18.4-1.78.16-.59.43-1.15.82-1.68.39-.53.87-.94,1.45-1.24s1.17-.44,1.78-.44c.45,0,.88.1,1.27.31.39.21.69.5.9.89.12.22.23.46.31.72l1.05-5.99h1.67l-2.67,15.19h-1.67l.25-1.43c-.05.08-.12.17-.19.25-.36.43-.79.76-1.3.99-.51.24-1.03.35-1.55.35Zm.79-1.49c.34,0,.68-.08,1.02-.24.34-.16.63-.39.87-.68.24-.3.43-.61.57-.94.11-.28.19-.56.25-.85l.14-.83.21-1.22c.07-.39.11-.77.11-1.17,0-.39-.04-.77-.14-1.14-.1-.36-.3-.66-.6-.9-.3-.23-.64-.35-1.02-.35-.44,0-.87.12-1.28.37-.41.25-.75.57-1,.97-.25.4-.43.82-.53,1.25-.1.43-.19.87-.27,1.31-.07.37-.13.75-.2,1.13-.06.38-.08.75-.06,1.13s.1.73.24,1.06c.14.34.36.6.67.8.31.19.65.29,1.02.29Z"/>
      <path class="cls-2" d="m431.07,631.07c-.51-3.82-.62-6.56-.33-8.22l.47-2.73h1.67l-.48,2.73c-.23,1.31-.3,3.27-.21,5.89l1.8-4.24h1.26l.25,4.26c1.06-2.64,1.7-4.62,1.92-5.91l.49-2.73h1.67l-.5,2.73c-.29,1.67-1.36,4.41-3.22,8.22h-1.26l-.27-4.77-2.02,4.77h-1.26Z"/>
      <path class="cls-2" d="m447.75,631.24c-.52,0-1.01-.1-1.46-.3-.45-.2-.8-.51-1.05-.93-.26-.42-.4-.89-.44-1.39-.04-.51-.02-1.02.06-1.53l.97-5.47h-2.52v-1.49h4.46l-1.28,7.23c-.05.36-.07.72-.04,1.07s.16.67.4.93c.24.26.54.39.9.39.29,0,.56-.09.82-.28.25-.19.46-.41.62-.67.16-.26.29-.54.4-.83l1.49.62c-.18.47-.43.91-.74,1.32-.32.41-.71.74-1.18.97-.47.24-.94.35-1.41.35Zm-.04-13.04c-.22,0-.44-.05-.65-.14-.21-.1-.37-.25-.48-.46-.1-.21-.16-.44-.16-.67s.05-.46.16-.67c.1-.21.26-.37.48-.48.21-.1.43-.15.65-.15.24,0,.46.05.67.15.21.1.37.26.47.48.1.21.16.44.16.67s-.05.46-.16.67c-.1.21-.26.37-.47.46-.21.1-.44.14-.67.14Z"/>
      <path class="cls-2" d="m459.52,631.24c-.57,0-1.1-.11-1.59-.33-.5-.22-.89-.56-1.17-1.01-.28-.45-.45-.96-.5-1.52s-.02-1.11.07-1.66l.91-5.1h-2.13v-1.49h2.4l.74-4.24h1.67l-.74,4.24h3.16v1.49h-3.43l-.95,5.35c-.05.32-.08.64-.07.96,0,.32.07.63.19.91.12.28.3.51.56.67.25.17.55.25.88.25s.65-.1.96-.3c.31-.2.56-.45.76-.75s.35-.62.46-.95l1.51.6c-.21.51-.49.99-.85,1.45s-.79.81-1.3,1.06-1.03.38-1.55.38Z"/>
      <path class="cls-2" d="m465.52,631.07l2.67-15.19h1.67l-.99,5.6c.07-.08.13-.16.19-.23.37-.41.81-.73,1.3-.96s1.01-.34,1.53-.34c.45,0,.88.1,1.27.31.39.21.69.5.9.88s.35.79.42,1.23c.08.44.1.89.08,1.35-.02.46-.07.92-.13,1.37l-1.05,5.97h-1.67l1.1-6.22c.07-.39.1-.77.1-1.15s-.06-.74-.18-1.09c-.12-.34-.32-.63-.61-.85-.29-.22-.63-.33-1.01-.33-.45,0-.89.14-1.31.41-.42.28-.73.63-.94,1.05-.21.39-.35.78-.43,1.18l-.02.17v.02l-1.2,6.8h-1.67Z"/>
      <path class="cls-2" d="m495.47,631.24c-.57,0-1.1-.11-1.59-.33-.5-.22-.89-.56-1.17-1.01-.28-.45-.45-.96-.5-1.52s-.02-1.11.07-1.66l.91-5.1h-2.13v-1.49h2.4l.74-4.24h1.67l-.74,4.24h3.16v1.49h-3.43l-.95,5.35c-.05.32-.08.64-.07.96,0,.32.07.63.19.91.12.28.3.51.56.67.25.17.55.25.88.25s.65-.1.96-.3c.31-.2.56-.45.76-.75s.35-.62.46-.95l1.51.6c-.21.51-.49.99-.85,1.45s-.79.81-1.3,1.06-1.03.38-1.55.38Z"/>
      <path class="cls-2" d="m501.47,631.07l2.67-15.19h1.67l-.99,5.6c.07-.08.13-.16.19-.23.37-.41.81-.73,1.3-.96s1.01-.34,1.53-.34c.45,0,.88.1,1.27.31.39.21.69.5.9.88s.35.79.42,1.23c.08.44.1.89.08,1.35-.02.46-.07.92-.13,1.37l-1.05,5.97h-1.67l1.1-6.22c.07-.39.1-.77.1-1.15s-.06-.74-.18-1.09c-.12-.34-.32-.63-.61-.85-.29-.22-.63-.33-1.01-.33-.45,0-.89.14-1.31.41-.42.28-.73.63-.94,1.05-.21.39-.35.78-.43,1.18l-.02.17v.02l-1.2,6.8h-1.67Z"/>
      <path class="cls-2" d="m518.06,631.24c-.58,0-1.14-.09-1.68-.27-.54-.18-1-.47-1.37-.88-.37-.41-.63-.88-.78-1.42-.15-.54-.2-1.12-.14-1.72.05-.6.13-1.19.23-1.79.1-.5.2-.99.31-1.49.11-.5.3-.97.57-1.44.27-.46.61-.87,1.01-1.24.41-.36.86-.63,1.37-.8.51-.17,1.01-.25,1.51-.25s.97.08,1.44.25c.46.16.85.42,1.18.76.32.34.56.74.71,1.2s.23.93.24,1.44c0,.5-.03,1-.11,1.5l-.23,1.24h-6.51c-.01.18-.03.36-.06.56-.05.5,0,.97.16,1.43.16.45.44.81.84,1.05.4.25.85.37,1.34.37,1.1,0,1.98-.52,2.62-1.55l1.47.66c-.3.48-.67.91-1.09,1.28s-.9.65-1.43.83-1.05.27-1.57.27Zm-2.03-6.38h4.86c.07-.39.1-.78.09-1.17,0-.39-.08-.76-.21-1.11-.13-.34-.35-.62-.67-.83-.32-.21-.67-.31-1.05-.31-.45,0-.89.12-1.31.37-.42.25-.76.58-1.01.99-.25.41-.43.84-.53,1.28-.05.25-.11.5-.17.77Z"/>
      <path class="cls-2" d="m538.92,631.07c-.51-3.82-.62-6.56-.33-8.22l.47-2.73h1.67l-.48,2.73c-.23,1.31-.3,3.27-.21,5.89l1.8-4.24h1.26l.25,4.26c1.06-2.64,1.7-4.62,1.92-5.91l.49-2.73h1.67l-.5,2.73c-.29,1.67-1.36,4.41-3.22,8.22h-1.26l-.27-4.77-2.02,4.77h-1.26Z"/>
      <path class="cls-2" d="m553.55,631.24c-.57,0-1.1-.1-1.61-.31-.51-.21-.92-.53-1.23-.96-.31-.43-.52-.92-.63-1.46-.11-.54-.13-1.09-.07-1.66.06-.57.15-1.15.26-1.73.08-.48.18-.97.3-1.47.12-.5.31-.97.57-1.44.26-.46.6-.87,1-1.23s.86-.62,1.35-.78c.5-.17,1.01-.25,1.53-.25.55,0,1.09.1,1.6.31.52.21.93.53,1.24.96.31.43.52.92.63,1.46.11.54.13,1.09.06,1.66-.07.57-.15,1.15-.25,1.73-.08.48-.18.97-.3,1.47-.12.5-.31.98-.58,1.44-.27.46-.61.87-1.01,1.23-.41.36-.86.62-1.36.78-.5.17-1,.25-1.5.25Zm.02-1.49c.44,0,.87-.12,1.29-.36.42-.24.75-.56,1-.97s.42-.83.53-1.26c.1-.43.2-.86.28-1.29l.02-.1.02-.19.04-.19.02-.19.08-.48c.05-.39.08-.77.06-1.14-.01-.37-.09-.73-.23-1.06-.14-.34-.36-.6-.67-.8-.31-.19-.65-.29-1.02-.29-.45,0-.89.12-1.3.36-.41.24-.75.57-1,.97s-.43.83-.53,1.26c-.1.43-.19.86-.27,1.29-.07.39-.13.77-.19,1.15-.06.38-.08.75-.06,1.13.01.37.09.73.23,1.06.14.34.36.6.66.8.3.19.65.29,1.03.29Z"/>
      <path class="cls-2" d="m562.62,631.07l1.92-10.95h1.67l-.33,1.92c.07-.12.14-.25.23-.37.32-.5.73-.9,1.24-1.23s1.05-.49,1.61-.49c.37,0,.73.08,1.07.25.34.16.61.41.81.72.19.32.29.67.29,1.05l-1.55.7c0-.36-.15-.65-.44-.89-.3-.23-.63-.35-1-.35-.51,0-.97.2-1.39.59s-.73.83-.92,1.31c-.19.47-.34.94-.43,1.42l-1.1,6.3h-1.67Z"/>
      <path class="cls-2" d="m579.46,631.24c-.55,0-1.06-.11-1.53-.33-.47-.22-.83-.55-1.09-.99-.26-.44-.41-.93-.45-1.47-.04-.54-.01-1.07.08-1.61l1.65-9.46h-2.5v-1.49h4.44l-1.96,11.22c-.06.29-.08.59-.08.89s.05.59.14.86.26.49.5.65c.23.17.5.25.81.25s.59-.09.87-.28c.28-.19.5-.42.67-.69.17-.28.31-.56.42-.85l1.47.66c-.19.47-.45.91-.78,1.32-.33.41-.73.74-1.21.97-.48.24-.95.35-1.44.35Z"/>
      <path class="cls-2" d="m588.73,631.24c-.52,0-1.01-.13-1.45-.39-.44-.26-.76-.62-.97-1.09-.21-.46-.33-.95-.38-1.47-.05-.52-.04-1.04.03-1.58.07-.54.15-1.07.25-1.61.11-.59.24-1.18.4-1.78.16-.59.43-1.15.82-1.68.39-.53.87-.94,1.45-1.24s1.17-.44,1.78-.44c.45,0,.88.1,1.27.31.39.21.69.5.9.89.12.22.23.46.31.72l1.05-5.99h1.67l-2.67,15.19h-1.67l.25-1.43c-.05.08-.12.17-.19.25-.36.43-.79.76-1.3.99-.51.24-1.03.35-1.55.35Zm.79-1.49c.34,0,.68-.08,1.02-.24.34-.16.63-.39.87-.68.24-.3.43-.61.57-.94.11-.28.19-.56.25-.85l.14-.83.21-1.22c.07-.39.11-.77.11-1.17,0-.39-.04-.77-.14-1.14-.1-.36-.3-.66-.6-.9-.3-.23-.64-.35-1.02-.35-.44,0-.87.12-1.28.37-.41.25-.75.57-1,.97-.25.4-.43.82-.53,1.25-.1.43-.19.87-.27,1.31-.07.37-.13.75-.2,1.13-.06.38-.08.75-.06,1.13s.1.73.24,1.06c.14.34.36.6.67.8.31.19.65.29,1.02.29Z"/>
    </g>
    <g>
      <g>
        <path class="cls-2" d="m264.78,256.66l27.15,11.85c.83.36,1.28,1.28,1.05,2.15l-.69,2.59c-.26.98-1.27,1.57-2.25,1.31-.11-.03-.23-.07-.33-.12l-26.66-12.95c-.71-.34-1.12-1.1-1.02-1.88l.18-1.49c.13-1.01,1.05-1.72,2.06-1.6.18.02.35.07.51.14Z"/>
        <rect class="cls-2" x="267.24" y="281.23" width="6.37" height="34.26" rx="2.61" ry="2.61" transform="translate(-66.95 518.2) rotate(-80.9)"/>
        <path class="cls-2" d="m254.17,331.84c-.06-.76.51-1.43,1.27-1.49,0,0,0,0,0,0l30.24-2.27c2.04-.15,3.78.85,3.89,2.24l.07.91c.1,1.39-1.47,2.65-3.52,2.8l-30.24,2.27c-.76.06-1.43-.51-1.49-1.27l-.24-3.18Z"/>
        <path class="cls-2" d="m298.09,361.62c-4.06,2.08-8.96,3.28-13.33,4.63-3.54,1.1-6.99,2.8-10.35,4.45-2.08,1.01-4.48,1.47-6.79,1.3-.77-.06-1.4-.64-1.52-1.41-.32-2.11.59-3.51,2.74-4.22,2.04-.67,4.14-1.48,6.3-2.43,6.5-2.87,12.73-5.13,18.69-6.78,1.12-.31,2.29-.46,3.51-.45.53,0,1.01.33,1.19.84.39,1.1.44,2.22.15,3.35-.08.32-.3.58-.59.73Z"/>
        <g>
          <path class="cls-2" d="m421.82,165.93l-3.36,28.9c-.14,1.23-1.26,2.11-2.49,1.97-.12-.01-.25-.04-.37-.07l-1.59-.46c-1.04-.3-1.72-1.31-1.61-2.39l3.2-29.5c.13-1.23,1.23-2.12,2.47-1.99.33.04.65.14.94.32l1.74,1.06c.75.46,1.16,1.3,1.06,2.17Z"/>
          <path class="cls-2" d="m383.69,197.3c-1.89-.48-3.87-2.97-4.19-4.85-1.4-8.55-2.96-17.35-4.68-26.4-.34-1.76.37-2.86,2.11-3.31.97-.24,2.04.24,3.21,1.46.42.44.7.99.81,1.58,1.22,6.63,2.65,13.4,4.3,20.3.95,4.01,1.24,7.19.85,9.56-.24,1.45-1.04,2.01-2.42,1.66Z"/>
          <rect class="cls-2" x="340.91" y="174.61" width="5.5" height="34.21" rx="2.57" ry="2.57" transform="translate(-44.05 124.36) rotate(-19.3)"/>
          <path class="cls-2" d="m318.69,220.31c-.14-.06-.24-.14-.3-.22-2.66-3.89-5.37-7.87-8.12-11.95-.93-1.37-1.95-2.67-3.04-3.92-1.42-1.6-2.47-3.6-3.13-6.01-.22-.79,0-1.45.67-1.96,1.88-1.46,4.23-1.08,5.43.95,1.49,2.51,3.17,4.88,5.03,7.12,1.06,1.26,2.01,2.54,2.86,3.85,1.2,1.83,2.73,3.43,3.81,5.34,1.35,2.38,2.67,4.67,3.95,6.88.78,1.34.85,3.65-.98,4.26-2.19.73-4.42-2.03-5.73-3.94-.11-.17-.27-.31-.46-.39Z"/>
          <rect class="cls-2" x="289.86" y="217.95" width="5.72" height="34.18" rx="2.8" ry="2.8" transform="translate(-74.15 314.61) rotate(-51)"/>
          <path class="cls-2" d="m288.3,397.93l23.83-16.8c.86-.61,2.04-.4,2.65.45.22.31.34.69.35,1.07l.03,2.57c0,.63-.3,1.22-.81,1.58l-24.17,16.93c-.86.6-2.05.39-2.65-.48-.26-.38-.38-.84-.33-1.29l.3-2.7c.06-.54.35-1.03.79-1.34Z"/>
          <path class="cls-1" d="m306.92,328.76c.13.05.28.07.43.04-.15.04-.29.03-.43-.04Z"/>
          <rect class="cls-2" x="439.24" y="188.65" width="34.21" height="5.5" rx="2.57" ry="2.57" transform="translate(124.88 558.83) rotate(-70.7)"/>
          <path class="cls-2" d="m481.31,219.99c.14-.06.24-.14.3-.22,2.66-3.89,5.37-7.87,8.12-11.95.93-1.37,1.95-2.67,3.04-3.92,1.42-1.6,2.47-3.6,3.13-6.01.22-.79,0-1.45-.67-1.96-1.88-1.46-4.23-1.08-5.43.95-1.49,2.51-3.17,4.88-5.03,7.12-1.06,1.26-2.01,2.54-2.86,3.85-1.2,1.83-2.73,3.43-3.81,5.34-1.35,2.38-2.67,4.67-3.95,6.88-.78,1.34-.85,3.65.98,4.26,2.19.73,4.42-2.03,5.73-3.94.11-.17.27-.31.46-.39Z"/>
          <rect class="cls-2" x="490.19" y="231.85" width="34.18" height="5.72" rx="2.8" ry="2.8" transform="translate(-34.66 371.55) rotate(-39)"/>
          <path class="cls-2" d="m535.22,256.34l-27.15,11.85c-.83.36-1.28,1.28-1.05,2.15l.69,2.59c.26.98,1.27,1.57,2.25,1.31.11-.03.23-.07.33-.12l26.66-12.95c.71-.34,1.12-1.1,1.02-1.88l-.18-1.49c-.13-1.01-1.05-1.72-2.06-1.6-.18.02-.35.07-.51.14Z"/>
          <rect class="cls-2" x="512.44" y="294.86" width="34.26" height="6.37" rx="2.61" ry="2.61" transform="translate(-40.47 87.51) rotate(-9.1)"/>
          <path class="cls-2" d="m545.83,331.52c.06-.76-.51-1.43-1.27-1.49,0,0,0,0,0,0l-30.24-2.27c-2.04-.15-3.78.85-3.89,2.24l-.07.91c-.1,1.39,1.47,2.65,3.52,2.8l30.24,2.27c.76.06,1.43-.51,1.49-1.27l.24-3.18Z"/>
          <path class="cls-2" d="m501.91,361.3c4.06,2.08,8.96,3.28,13.33,4.63,3.54,1.1,6.99,2.8,10.35,4.45,2.08,1.01,4.48,1.47,6.79,1.3.77-.06,1.4-.64,1.52-1.41.32-2.11-.59-3.51-2.74-4.22-2.04-.67-4.14-1.48-6.3-2.43-6.5-2.87-12.73-5.13-18.69-6.78-1.12-.31-2.29-.46-3.51-.45-.53,0-1.01.33-1.19.84-.39,1.1-.44,2.22-.15,3.35.08.32.3.58.59.73Z"/>
          <path class="cls-2" d="m511.7,397.61l-23.83-16.8c-.86-.61-2.04-.4-2.65.45-.22.31-.34.69-.35,1.07l-.03,2.57c0,.63.3,1.22.81,1.58l24.17,16.93c.86.6,2.05.39,2.65-.48.26-.38.38-.84.33-1.29l-.3-2.7c-.06-.54-.35-1.03-.79-1.34Z"/>
          <path class="cls-1" d="m492.65,328.48c.15.03.29.01.43-.04-.13.07-.28.08-.43.04Z"/>
        </g>
      </g>
      <g>
        <path class="cls-1" d="m439.85,484.58c-2.55,1.03-5.38,1.52-8.45,1.52l8.45-1.52Z"/>
        <path class="cls-1" d="m439.93,476.34c-.03.05-.05.09-.07.15-1.06,2.23-3.26,3.73-5.71,4.04-22.63,2.83-44.25,3.84-63.59.59-3.02-.52-5.56-2.77-6.1-5.79-.33-1.9-.08-3.8.74-5.71.15-.33.31-.66.49-.95.16-.27.35-.51.53-.75.13-.16.28-.32.44-.48.83-.83,1.85-1.43,2.96-1.78.12-.04.24-.07.36-.09.59-.16,1.22-.25,1.85-.25h.05c2.74.32,5.39.72,7.92,1.22,3.4.66,6.62,1.08,9.68,1.27,8.88.55,18.49.37,28.84-.52.79-.07,1.87-.21,3.25-.45h.04c1.78-.09,3.58-.2,5.39-.32,1.81-.11,3.62-.24,5.46-.39,1-.08,1.95.04,2.83.32.51.16,1,.37,1.44.64.33.17.64.39.92.62.12.09.23.19.33.28s.21.19.32.29c.11.11.2.21.29.32.11.11.2.21.28.32.11.12.2.23.27.35.11.15.21.31.31.47.11.15.19.29.25.44.03.03.04.07.05.09.07.13.13.27.19.4.19.43.33.88.43,1.34.03.07.04.15.04.23.25,1.32.12,2.74-.51,4.12Z"/>
        <path class="cls-2" d="m503.31,300.67c-1.14-11.51-4.96-22.33-9.32-33.03-1.68-4.15-3.58-7.9-5.67-11.29-2.55-4.13-5.18-7.77-7.84-10.93-2.55-3.01-5.07-6.3-7.88-9-12.66-12.18-28-19.99-45.2-23.63-3.84-.82-8.53-1.35-14.05-1.6-4.52-.21-9.76.28-12.12,4.68-.51.94-1.64,1.34-2.61.9l-8.46-3.72c-9.44-3.44-17.81-.07-24.06,7.3-1.79,2.11-4.24,2.23-6.75,2.59-3.77.55-8.22,3.25-11.31,5.59-2.98,2.23-4.07,5.92-4.64,9.44-.08.52-.52.91-1.06.92-3.01.11-5.95-.04-8.92.87-3.22.99-5.22,2.75-7.64,4.63-4.56,3.52-7.74,8.25-9.45,13.79-.44,1.39-.8,4.28-1.08,8.64-.01.32-.2.6-.47.76-1.18.64-2.42,1.04-3.42,1.98-2.62,2.45-4.72,5.2-6.27,8.28-2.62,5.14-2.1,11.61-.64,17.16.19.72,0,1.5-.51,2.06-2.34,2.61-4.35,5.63-6,9.05-3.66,7.52-3.65,15.03.05,22.51,1.95,3.97,4.64,7.25,8.06,9.83.58.45.84,1.2.64,1.91-.7,2.57-.9,5.54-.62,8.91.44,5.3,3.24,8.63,6.57,12.25,2.54,2.78,6.37,3.96,9.84,5.28.84.31,1.42,1.08,1.6,1.95.62,2.88,1.63,5.63,3.06,8.26,2.51,4.61,7.52,6.22,12.26,7.35.59.15,1.06.59,1.23,1.18,1.48,5.12,5.15,8.36,11.01,9.71.88.21,1.3.76,1.26,1.66-.31,5.88.96,11.17,3.8,15.87,1.36,2.27,3.28,4.17,4.96,6.3.32.09.51.31.52.67.03.24-.08.4-.32.49-.17.05-.35.24-.51.55-2.22,4.83-2.42,9.84-.59,15.06.49,1.4,1.34,2.13,2.26,3.2.04.05.08.11.12.16.33.56.15,1.27-.4,1.6l-.76.45c-.29.17-.49.41-.62.72-2.17,5.76-2.78,12.05.12,17.38.13.24.32.43.56.56.8.44,1.15,1.12,1.07,2.05-.01.29-.13.53-.35.74-3.85,3.78-3.84,11.69-2.34,16.34,1.1,3.34,3.33,5.4,6.7,6.16l8.96,1.4c.62.11,1.12.55,1.3,1.15.36,1.18.75,2.3,1.16,3.37,1.7,4.44,8.42,7.54,12.58,8.75,5.7,1.63,13.57,1.27,19.24.82,4.03-.33,8.5-2.17,13.41-5.52,2.47-1.68,3.1-4.8,3.82-7.57.07-.29.27-.55.53-.68.92-.49,2.01-.78,3.25-.83l8.45-1.52c1.7-.98,2.94-2.34,3.73-4.11,1.36-3.7,2.05-6.23,2.07-7.57.08-3.54-1.18-6.55-2.65-9.74-.55-1.19-.79-2.62-.03-3.8,2.25-3.5,3.12-7.06,2.58-10.68-.11-.75-.23-1.51-.35-2.3-.15-.82-.39-1.56-.74-2.25-.82-1.66-1.62-3.24-2.41-4.76-.16-.31-.16-.62,0-.92.58-1.16,1.51-1.71,1.97-3.01,1.64-4.57,1.94-8.83.9-12.77-.2-.8-.24-1.91.09-2.67,1.42-3.26,2.23-6.77,3.65-10,3.2-7.21,7.03-13.55,11.54-19.02,5.19-6.3,8.91-10.43,11.17-12.41,9.51-8.34,18.53-17.81,23.17-29.46,7.5-15.49,10.42-31.63,8.75-48.45Zm-142.27,108.13c-1.28-2.01-2.07-4.72-2.35-8.14-.25-2.85,1.11-5.15,3.02-7.01.35-.33.49-.84.37-1.31-.87-3.42-5.2-2.35-7.69-2.42-3.24-.09-5.62-1.27-7.1-3.52-.59-.9-.82-1.74-.7-2.57.09-.58.53-1.23,1.32-1.98,3.29-3.1,4.29-6.93,3.02-11.47l-6.18-7.66c-.72-.9-1.6-1.1-2.63-.6-.28.13-.52.29-.74.51-1.08,1.07-1.18,2.23-.29,3.48,1.24,1.79,7.34,9.99,2.78,11.23-4.11,1.12-7.62.53-10.54-1.78-4.59-3.61-3.74-8-2.78-13.19.6-3.33,4.27-5.91,7.07-7.37,4.19-2.18,10.93-1.52,15.44-.98,2.97.36,4.4-.84,4.32-3.62-.03-.62-.32-1.03-.9-1.26-10.1-3.89-22.73-2.59-29.11,6.82-.41.62-.74,1.28-.98,1.99-.29.91-.57,1.58-.86,1.99-.67.53-1.44.59-2.31.16-2.59-1.31-5.66-2.69-7.52-4.83-2.13-2.46-3.32-5.78-3.56-9.95-.07-1.18.05-2.02.35-2.55,2.21-.03,4.39.04,6.57.17,1.9.12,4.32-1.68,3.2-3.82-.56-1.07-1.82-2.27-3.09-1.75-.36.13-.72.24-1.11.29-2.1.29-2.53-.41-1.24-2.13,2.22-2.97,5.09-8.75,4.43-12.76-.64-3.77-3.33-6.47-7.17-6.39-.15.01-.28.03-.43.07-1.04.25-1.68,1.31-1.43,2.37.59,2.38,3.26,2.96,2.79,5.78-.55,3.32-2.3,6.08-5.26,8.32-.05.04-.11.08-.17.11-.52.24-1.14.03-1.38-.49l-1.85-3.86c-.67-.63-1.24-1.4-1.73-2.34-.11-.2-.28-.33-.51-.4-.15-.04-.24-.12-.31-.27-2.31-5.22-2.63-10.11-.99-14.68.98-2.67,2.75-5.8,5.35-9.39,3.54,2.88,7.39,4.65,11.55,5.32,1.34.23,2.25-.29,2.73-1.56.12-.33.21-.68.25-1.04.17-1.4-.44-2.27-1.83-2.57-2.71-.59-4.89-2.25-7.03-3.94-1.12-.88-1.97-1.82-2.54-2.81-.63-1.07-1.19-2.17-1.71-3.3-.78-1.71-1.23-3.48-1.35-5.3-.08-1.14.09-2.26.52-3.33.52-1.34.95-2.61,1.28-3.82.25-.92,1.27-2.33,2.03-2.9.64-.48,1.16-1.06,1.56-1.75.13-.25.35-.48.59-.64.87-.59,2.05-.36,2.63.51,4.28,6.3,10.34,12.12,16.85,14.21,4.63,1.5,11.98,1.59,17.14-.51,2.42-1,5.23-2.22,7.86-1.39,8.67,2.79,7.31,13.57,5.2,20.71-.2.7-.09,1.46.29,2.07.47.72,1.06,1.19,1.77,1.4,1.9.58,3.08-.11,3.53-2.06.71-3.04,1.55-6.02,2.54-8.96.99-2.94,4-3.53,6.67-4.04.15-.03.29-.07.43-.13.79-.4,1.11-1.38.71-2.17-1.56-3.1-5.68-2.26-8.24-1.12-.04.01-.07.03-.09.04-.32.08-.64-.12-.72-.43-.64-2.58-2.06-4.91-4.27-6.98-3.33-3.14,3.56-11.7,5.99-13.97.66-.62.75-1.6.23-2.33-.74-1.03-2.19-2.03-3.52-1.42-1.9.87-3.45,2.15-4.67,3.85-2.1,2.88-3.61,5.72-4.55,8.53-.12.4-.39.62-.8.66-3.69.37-7.52,1.15-11.49,2.33-4.29,1.28-10.3,1.23-14.79-.87-5.48-2.58-9.08-6.55-10.79-11.93-1-3.12-1.04-7.09-.11-11.91.04-.25.2-.47.41-.6.44-.24.74-.59.92-1.03.49-1.23,1.07-2.26,1.71-3.08.8-1.03,1.63-2.11,2.46-3.26,1.11-1.52,2.63-2.57,4.57-3.12,2.45-.71,3.76-1.07,3.9-1.12,2.45-.8,5.03-1.12,7.7-.96,3.92.25,7.76,3.97,11.73,2.65.45-.16.8-.56.88-1.04.21-1.31-.16-2.33-1.14-3.05-1.74-1.3-3.66-2.39-5.78-3.3-.51-.23-.78-.8-.6-1.35.99-3.16,2.61-6.11,5.59-7.84,1.75-1.02,5.55-3.41,7.45-2.39.28.15.44.39.47.7.48,5.51,2.94,9.71,7.37,12.58,1.74,1.12,3.62.24,3.92-1.79.23-1.66-.45-3.17-2.06-4.53-3.52-3.77-3.9-7.52-1.18-11.22.59-.82,1.5-1.66,2.7-2.51,1.46-1.04,2.49-1.73,3.09-2.07,4.48-2.57,9.37-2.53,14.68.11l5.6,2.5c.98.33,1.58,1.03,1.79,2.07l-.04,19.03c.37,3.42.47,6.87.29,10.35-.01.08-.05.17-.15.28-.13.12-.19.28-.19.45v15.61s-.37,8.1-.37,8.1c-.11,2.17-1.11,2.74-3.04,1.73-.75-.4-1.47-.88-2.15-1.43-1.81-1.43-2.77-3.3-2.92-5.6-.13-2.13-.04-4.33.28-6.61.16-1.16.07-2.29-.29-3.4-.11-.32-.35-.6-.66-.75-.98-.45-1.98-.56-3.02-.33-.33.08-.58.27-.7.59-2.86,6.95-2.41,15.06,3.26,20.27,1.48,1.35,1.93,3.09,1.35,5.19-1.14,4.07-1.31,8.38-.51,12.98.21,1.22.92,1.73,2.14,1.52l.63-.11c1.5-.25,2.19-1.14,2.1-2.66-.2-3.1-.88-9.63,2.26-11.59.09-.07.21-.11.32-.11.4-.04.74.25.76.64.56,7.15.03,13.88.35,20.86,0,.08,0,.15-.01.23-.09.78-.79,1.32-1.55,1.23-3.24-.4-6.59-.49-10.08-.28-10.2.63-14.95,8.4-21.05,15.16-2.53,2.79-5.32,4.09-8.4,3.88-3.88-.27-8.17-1.22-11.69-2.92-.63-.31-1-.98-.94-1.68.31-3.34.24-6.62-.2-9.8-.35-2.5,1.7-3.72,3.32-5.18,2.38-2.15,3.36-4.95,2.93-8.38-.41-3.42-4.51-3.9-5.54-.74-.71,2.14-1.55,4.28-2.53,6.39-.07.16-.17.32-.29.44-.64.7-1.73.74-2.41.09-3.05-2.83-7.3-5.91-11.65-6.37-.75-.08-1.44.37-1.66,1.1-.74,2.47.01,4.24,2.23,5.3,4.19,1.99,8.25,4.4,10,8.96,1.46,3.78.43,7.34-3.08,10.67-2.27,2.15-4.56,4.05-6.87,5.67-1.98,1.36-2.37,3.44-1.44,5.7.21.53.59.71,1.14.52,4.81-1.63,8.46-4.16,10.97-7.56.41-.56,1.15-.75,1.78-.48,4.72,2.03,9.24,3.38,13.52,4.05,2.27.36,4.37.28,6.29-.23,6.45-1.71,11.39-7.15,15.02-12.58,2.14-3.2,5.26-5.01,8.91-5.96,3.69-.96,7.98-.04,11.83-.04h.39c.55-.01,1,.43,1.02.98l.24,13.27c0,.12-.03.23-.08.32-.17.27-.52.33-.79.17-2.79-1.81-5.36-3.54-8.88-2.67-3.52.87-6.66,2.63-9.41,5.27-1.08,1.03-1.31,2.5-.96,3.93.21.86,1.06,1.38,1.93,1.2,1.38-.28,2.71-.87,4.01-1.77,2.19-1.51,5.8-4.03,8.13-1.67,2.46,2.49,3.08,5.38,1.82,8.67-.47,1.2-.55,2.96-2.26,3.01-1.59.04-3.21.04-4.89-.03-.92-.03-1.62.29-2.06.98-1.23,1.87-.82,3.26,1.23,4.17,2.3,1.02,5.99,2.53,8.05.44.99-.99,2.39-1.03,3.64-.58.27.11.44.36.43.66l-.31,11.9c-.03.84-.7,1.54-1.54,1.59-1.63.08-3.32-.16-5.04-.75-2.25-.75-3.34-2.69-5.12-4.05-1.18-.91-2.46-1.56-3.84-1.97-6.18-1.78-9.13-5.78-12.7-10.71-1.4-1.97-3.05-1.43-4.16.4-.78,1.27-.78,2.53,0,3.78,1.78,2.9,4,5.47,6.65,7.69,2.34,1.95,5.22,3.02,7.97,4.37,1.1.55,2.05,1.31,2.83,2.27,2.47,3.04,5.99,4.65,10.56,4.83,1.31.05,2.61.11,3.88.17h.05c.55.07.94.55.88,1.1-.62,5.86-.71,11.49-.28,16.9.07.84-.32,1.2-1.16,1.1-2.54-.32-5.09-.12-7.65.62-2.9,1.44-6.22,2.03-8.33,4.88-3.58,4.85-5.5,10.32-5.74,16.43-.04.84-.7,1.52-1.54,1.58-3.77.27-6.49,1.94-9.33-1.79-1.16-1.51-2.21-3-3.14-4.48Zm3.72,38.37c.35-.71.83-1.32,1.43-1.85,1.58-1.39,3.92-2.09,6.24-1.82,3.26.37,6.58.68,9.96.92,10.3.75,21.13.9,32.4.56,5.63-.16,11.38-.45,17.22-.86,2.07-.15,3.96.45,5.39,1.48,2.38,1.73,3.5,4.64,2.07,7.37-.03.04-.05.08-.07.12-1.06,1.94-3.26,3.22-5.71,3.49-22.63,2.45-44.25,3.33-63.59.51-3.02-.44-5.56-2.38-6.1-5-.33-1.63-.07-3.29.74-4.93Zm75.18,29.18c-.03.05-.05.09-.07.15-1.06,2.23-3.26,3.73-5.71,4.04-22.63,2.83-44.25,3.84-63.59.59-3.02-.52-5.56-2.77-6.1-5.79-.33-1.9-.08-3.8.74-5.71.15-.33.31-.66.49-.95.16-.27.35-.51.53-.75.13-.16.28-.32.44-.48.83-.83,1.85-1.43,2.96-1.78.12-.04.24-.07.36-.09.59-.16,1.22-.25,1.85-.25h.05c2.74.32,5.39.72,7.92,1.22,3.4.66,6.62,1.08,9.68,1.27,8.88.55,18.49.37,28.84-.52.79-.07,1.87-.21,3.25-.45h.04c1.79-.09,3.58-.2,5.39-.32,1.81-.11,3.62-.24,5.46-.39,1-.08,1.95.04,2.83.32.51.16,1,.37,1.44.64.33.17.64.39.92.62.12.09.23.19.33.28s.21.19.32.29c.11.11.2.21.29.32.11.11.2.21.28.32.11.12.2.23.27.35.12.15.23.31.31.47.11.15.19.29.25.44.03.03.04.07.05.09.07.13.13.27.19.4.19.43.33.88.43,1.34.03.07.03.15.04.23.25,1.32.12,2.74-.51,4.12Zm.56-44.69s-.05.08-.08.13c-1.04,1.93-3.25,3.21-5.71,3.48-22.61,2.46-44.24,3.33-63.57.51-3.02-.44-5.56-2.38-6.1-5-.35-1.63-.08-3.28.74-4.93,1.26-2.57,4.47-4.04,7.66-3.66,18.19,2.1,38.24,2.09,59.6.64,5.51-.37,9.75,4.48,7.46,8.84Zm-26.28-101.14c-.03-2.45,1.89-3.69,2.35-5.8.4-1.83-.83-5.63-3.13-5.92-1.51-.19-3.2-.07-5.07.39-.37.09-.71.32-.9.66-1.19,1.99-2.11,5.59.16,7.34.25.2.43.45.52.76.44,1.68.62,3.42.52,5.2-.71,12.97-.59,22.88-.98,34.14-.16,4.44.36,8.88.09,13.29-.74,11.95-1.04,23.98-.95,36.05.01.96-.45,1.44-1.43,1.44h-.25c-1.04,0-1.47-.52-1.27-1.54.44-2.25.66-4.73.63-7.46-.13-12.08-.66-23.92-.28-35.96.23-6.95-.31-13.89-.11-20.75.17-6.39.19-12.86.04-19.44-.05-2.5.01-5.22.23-8.13.08-1.12.03-2.22-.13-3.32-.31-2.03-1.14-4.69.82-6.18,2.43-1.86,4.91-3.68,7.41-5.46,3.41-2.41,6.2-4.85,9.16-7.53.75-.68,1.78-.96,2.75-.75l8.99,1.82c1.5.29,2.46,1.18,2.89,2.65l2.63,8.77c.24.79.09,1.66-.4,2.33-3.21,4.36-6.15,8.45-8.83,12.3-2.55,3.69-3.6,8.13-5.32,12.33-1.16,2.88-1.72,5.82-2.75,8.68-.79,2.21-1.3,4.35-1.51,6.42-.16,1.48-.4,2.97-.76,4.41-.32,1.35-.53,2.78-.63,4.31-.36,5.46-.76,10.79-1.2,15.99-.44,5.3-.74,10.54-.87,15.75-.15,6.19-.6,12.7-1.34,19.56-.04.43-.4.75-.84.76h-.4c-.59,0-.88-.29-.87-.88l.24-44.25c0-.21.04-.43.12-.64.07-.13.09-.29.09-.45.51-13.27.7-26.89.58-40.89Zm83.97-16.61c-.28,4.13-.7,7.49-1.23,10.06-1.42,6.82-3.56,13.99-6.45,21.52-1.82,4.41-4.2,8.45-7.15,12.12-4.92,6.12-10.3,11.77-16.15,16.93-6.58,6.49-12.48,13.49-17.69,21.05-2.05,2.94-3.57,5.75-4.59,8.4-1.26,3.28-2.38,6.69-3.38,10.23-.4,1.42-1.82,1.87-3.17,1.42-4.21-1.4-10.16-.07-14.74.83-.59.12-1.16-.25-1.27-.84-.03-.08-.03-.17-.03-.25l1.18-34.88c.11-4.21.57-8.37,1.4-12.49.16-.72.25-1.46.29-2.19.08-1,.35-1.83.43-2.86.39-5.66,1.55-11.18,3.48-16.58.12-2.15.88-4.39,2.27-6.7l1.71-3.76c2.23-4.81,5.18-9.31,8.84-13.48.48-1.26,1.2-.84,2.13,1.23,2.47,2.71,5.48,5,9.04,6.86,2.21,1.15,4.77,1.81,7.69,1.95,4.81.23,8.16-3.45,10.16-7.58.99-2.06,1.22-4.33.67-6.79-1.36-6.12-5.74-8.45-11.46-10.14-5.59-1.66-10.75-.51-15.53,3.2-.37.29-.91.23-1.22-.15-.08-.09-.13-.23-.16-.35l-1.15-5.2c-.2-.88.36-1.77,1.24-1.97.04-.01.07-.01.09-.03,4.15-.68,8.13-2.75,11.94-6.23,3.42-3.1,4.69-7.65,3.74-12.08-.4-1.89-1.4-3.29-3.01-4.19-4-2.25-7.05-1.82-11.09-.64-7.29,2.13-8.96,9.44-9.09,16.05-.01.52-.28.78-.8.76-2.35-.05-4.55-.45-6.57-1.22-.44-.16-.67-.66-.51-1.1.03-.05.05-.12.08-.16,2.53-3.89,3.41-8.06,2.63-12.53-1.35-7.92-9.15-13.08-16.76-8.41-5.43,3.33-4.64,10.6-3.42,15.94.79,3.44,3.4,5.87,6.16,7.74.45.31.57.94.27,1.39-.07.09-.15.19-.24.25-3.82,2.79-7.61,5.87-11.38,9.23-.29.25-.72.27-1.02.01-.13-.12-.21-.35-.21-.67-.17-26.58-.29-53.18-.36-79.81l.05-2.14c.16-1.27.32-2.46.49-3.57.21-1.4.67-2.47,1.38-3.21,1.73-1.85,3.92-2.63,6.57-2.39,10.3.95,19.1,2.73,26.4,5.34,7.3,2.61,13.64,5.79,19.03,9.53,3.17,2.19,6.58,4.97,10.24,8.34,9.6,8.8,17.87,21.33,22.39,32.72,1.04,2.65,2.03,5.7,2.96,9.13.66,2.43,1.47,5.35,2.43,8.77,2.18,7.66,2.98,15.53,2.42,23.58Zm-50.88,3.06c4.44-5.68,10.66-5.75,16.03-1.79,2.66,1.97,3.29,4.75,1.91,8.36-1.23,3.25-4.79,3.64-7.69,2.7-2.92-.92-5.54-2.58-7.88-4.96-.7-.71-1.42-1.39-2.18-2.07-.75-.67-.82-1.42-.2-2.23Z"/>
        <path class="cls-4" d="m465.25,323.53c-1.23,3.25-4.79,3.64-7.69,2.7-2.92-.92-5.54-2.58-7.88-4.96-.7-.71-1.42-1.39-2.18-2.07-.75-.67-.82-1.42-.2-2.23,4.44-5.68,10.66-5.75,16.03-1.79,2.66,1.97,3.29,4.75,1.91,8.36Z"/>
        <path class="cls-4" d="m398.55,253.74c-.01.08-.05.17-.15.28-.13.12-.19.28-.19.45v15.61s-.37,8.1-.37,8.1c-.11,2.17-1.11,2.74-3.04,1.73-.75-.4-1.47-.88-2.15-1.43-1.81-1.43-2.77-3.3-2.92-5.6-.13-2.13-.04-4.33.28-6.61.16-1.16.07-2.29-.29-3.4-.11-.32-.35-.6-.66-.75-.98-.45-1.98-.56-3.02-.33-.33.08-.58.27-.7.59-2.86,6.95-2.41,15.06,3.26,20.27,1.48,1.35,1.93,3.09,1.35,5.19-1.14,4.07-1.31,8.38-.51,12.98.21,1.22.92,1.73,2.14,1.52l.63-.11c1.5-.25,2.19-1.14,2.1-2.66-.2-3.1-.88-9.63,2.26-11.59.09-.07.21-.11.32-.11.4-.04.74.25.76.64.56,7.15.03,13.88.35,20.86,0,.08,0,.15-.01.23-.09.78-.79,1.32-1.55,1.23-3.24-.4-6.59-.49-10.08-.28-10.2.63-14.95,8.4-21.05,15.16-2.53,2.79-5.32,4.09-8.4,3.88-3.88-.27-8.17-1.22-11.69-2.92-.63-.31-1-.98-.94-1.68.31-3.34.24-6.62-.2-9.8-.35-2.5,1.7-3.72,3.32-5.18,2.38-2.15,3.36-4.95,2.93-8.38-.41-3.42-4.51-3.9-5.54-.74-.71,2.14-1.55,4.28-2.53,6.39-.07.16-.17.32-.29.44-.64.7-1.73.74-2.41.09-3.05-2.83-7.3-5.91-11.65-6.37-.75-.08-1.44.37-1.66,1.1-.74,2.47.01,4.24,2.23,5.3,4.19,1.99,8.25,4.4,10,8.96,1.46,3.78.43,7.34-3.08,10.67-2.27,2.15-4.56,4.05-6.87,5.67-1.98,1.36-2.37,3.44-1.44,5.7.21.53.59.71,1.14.52,4.81-1.63,8.46-4.16,10.97-7.56.41-.56,1.15-.75,1.78-.48,4.72,2.03,9.24,3.38,13.52,4.05,2.27.36,4.37.28,6.29-.23,6.45-1.71,11.39-7.15,15.02-12.58,2.14-3.2,5.26-5.01,8.91-5.96,3.69-.96,7.98-.04,11.83-.04h.39c.55-.01,1,.43,1.02.98l.24,13.27c0,.12-.03.23-.08.32-.17.27-.52.33-.79.17-2.79-1.81-5.36-3.54-8.88-2.67-3.52.87-6.66,2.63-9.41,5.27-1.08,1.03-1.31,2.5-.96,3.93.21.86,1.06,1.38,1.93,1.2,1.38-.28,2.71-.87,4.01-1.77,2.19-1.51,5.8-4.03,8.13-1.67,2.46,2.49,3.08,5.38,1.82,8.67-.47,1.2-.55,2.96-2.26,3.01-1.59.04-3.21.04-4.89-.03-.92-.03-1.62.29-2.06.98-1.23,1.87-.82,3.26,1.23,4.17,2.3,1.02,5.99,2.53,8.05.44.99-.99,2.39-1.03,3.64-.58.27.11.44.36.43.66l-.31,11.9c-.03.84-.7,1.54-1.54,1.59-1.63.08-3.32-.16-5.04-.75-2.25-.75-3.34-2.69-5.12-4.05-1.18-.91-2.46-1.56-3.84-1.97-6.18-1.78-9.13-5.78-12.7-10.71-1.4-1.97-3.05-1.43-4.16.4-.78,1.27-.78,2.53,0,3.78,1.78,2.9,4,5.47,6.65,7.69,2.34,1.95,5.22,3.02,7.97,4.37,1.1.55,2.05,1.31,2.83,2.27,2.47,3.04,5.99,4.65,10.56,4.83,1.31.05,2.61.11,3.88.17h.05c.55.07.94.55.88,1.1-.62,5.86-.71,11.49-.28,16.9.07.84-.32,1.2-1.16,1.1-2.54-.32-5.09-.12-7.65.62-2.9,1.44-6.22,2.03-8.33,4.88-3.58,4.85-5.5,10.32-5.74,16.43-.04.84-.7,1.52-1.54,1.58-3.77.27-6.49,1.94-9.33-1.79-1.16-1.51-2.21-3-3.14-4.48-1.28-2.01-2.07-4.72-2.35-8.14-.25-2.85,1.11-5.15,3.02-7.01.35-.33.49-.84.37-1.31-.87-3.42-5.2-2.35-7.69-2.42-3.24-.09-5.62-1.27-7.1-3.52-.59-.9-.82-1.74-.7-2.57.09-.58.53-1.23,1.32-1.98,3.29-3.1,4.29-6.93,3.02-11.47l-6.18-7.66c-.72-.9-1.6-1.1-2.63-.6-.28.13-.52.29-.74.51-1.08,1.07-1.18,2.23-.29,3.48,1.24,1.79,7.34,9.99,2.78,11.23-4.11,1.12-7.62.53-10.54-1.78-4.59-3.61-3.74-8-2.78-13.19.6-3.33,4.27-5.91,7.07-7.37,4.19-2.18,10.93-1.52,15.44-.98,2.97.36,4.4-.84,4.32-3.62-.03-.62-.32-1.03-.9-1.26-10.1-3.89-22.73-2.59-29.11,6.82-.41.62-.74,1.28-.98,1.99-.29.91-.57,1.58-.86,1.99-.67.53-1.44.59-2.31.16-2.59-1.31-5.66-2.69-7.52-4.83-2.13-2.46-3.32-5.78-3.56-9.95-.07-1.18.05-2.02.35-2.55,2.21-.03,4.39.04,6.57.17,1.9.12,4.32-1.68,3.2-3.82-.56-1.07-1.82-2.27-3.09-1.75-.36.13-.72.24-1.11.29-2.1.29-2.53-.41-1.24-2.13,2.22-2.97,5.09-8.75,4.43-12.76-.64-3.77-3.33-6.47-7.17-6.39-.15.01-.28.03-.43.07-1.04.25-1.68,1.31-1.43,2.37.59,2.38,3.26,2.96,2.79,5.78-.55,3.32-2.3,6.08-5.26,8.32-.05.04-.11.08-.17.11-.52.24-1.14.03-1.38-.49l-1.85-3.86c-.67-.63-1.24-1.4-1.73-2.34-.11-.2-.28-.33-.51-.4-.15-.04-.24-.12-.31-.27-2.31-5.22-2.63-10.11-.99-14.68.98-2.67,2.75-5.8,5.35-9.39,3.54,2.88,7.39,4.65,11.55,5.32,1.34.23,2.25-.29,2.73-1.56.12-.33.21-.68.25-1.04.17-1.4-.44-2.27-1.83-2.57-2.71-.59-4.89-2.25-7.03-3.94-1.12-.88-1.97-1.82-2.54-2.81-.63-1.07-1.19-2.17-1.71-3.3-.78-1.71-1.23-3.48-1.35-5.3-.08-1.14.09-2.26.52-3.33.52-1.34.95-2.61,1.28-3.82.25-.92,1.27-2.33,2.03-2.9.64-.48,1.16-1.06,1.56-1.75.13-.25.35-.48.59-.64.87-.59,2.05-.36,2.63.51,4.28,6.3,10.34,12.12,16.85,14.21,4.63,1.5,11.98,1.59,17.14-.51,2.42-1,5.23-2.22,7.86-1.39,8.67,2.79,7.31,13.57,5.2,20.71-.2.7-.09,1.46.29,2.07.47.72,1.06,1.19,1.77,1.4,1.9.58,3.08-.11,3.53-2.06.71-3.04,1.55-6.02,2.54-8.96.99-2.94,4-3.53,6.67-4.04.15-.03.29-.07.43-.13.79-.4,1.11-1.38.71-2.17-1.56-3.1-5.68-2.26-8.24-1.12-.04.01-.07.03-.09.04-.32.08-.64-.12-.72-.43-.64-2.58-2.06-4.91-4.27-6.98-3.33-3.14,3.56-11.7,5.99-13.97.66-.62.75-1.6.23-2.33-.74-1.03-2.19-2.03-3.52-1.42-1.9.87-3.45,2.15-4.67,3.85-2.1,2.88-3.61,5.72-4.55,8.53-.12.4-.39.62-.8.66-3.69.37-7.52,1.15-11.49,2.33-4.29,1.28-10.3,1.23-14.79-.87-5.48-2.58-9.08-6.55-10.79-11.93-1-3.12-1.04-7.09-.11-11.91.04-.25.2-.47.41-.6.44-.24.74-.59.92-1.03.49-1.23,1.07-2.26,1.71-3.08.8-1.03,1.63-2.11,2.46-3.26,1.11-1.52,2.63-2.57,4.57-3.12,2.45-.71,3.76-1.07,3.9-1.12,2.45-.8,5.03-1.12,7.7-.96,3.92.25,7.76,3.97,11.73,2.65.45-.16.8-.56.88-1.04.21-1.31-.16-2.33-1.14-3.05-1.74-1.3-3.66-2.39-5.78-3.3-.51-.23-.78-.8-.6-1.35.99-3.16,2.61-6.11,5.59-7.84,1.75-1.02,5.55-3.41,7.45-2.39.28.15.44.39.47.7.48,5.51,2.94,9.71,7.37,12.58,1.74,1.12,3.62.24,3.92-1.79.23-1.66-.45-3.17-2.06-4.53-3.52-3.77-3.9-7.52-1.18-11.22.59-.82,1.5-1.66,2.7-2.51,1.46-1.04,2.49-1.73,3.09-2.07,4.48-2.57,9.37-2.53,14.68.11l5.6,2.5c.98.33,1.58,1.03,1.79,2.07l-.04,19.03c.37,3.42.47,6.87.29,10.35Z"/>
        <path class="cls-1" d="m438.52,317.11c-3.21,4.36-6.15,8.45-8.83,12.3-2.55,3.69-3.6,8.13-5.32,12.33-1.16,2.88-1.72,5.82-2.75,8.68-.79,2.21-1.3,4.35-1.51,6.42-.16,1.48-.4,2.97-.76,4.41-.32,1.35-.53,2.78-.63,4.31-.36,5.46-.76,10.79-1.2,15.99-.44,5.3-.74,10.54-.87,15.75-.15,6.19-.6,12.7-1.34,19.56-.04.43-.4.75-.84.76h-.4c-.59,0-.88-.29-.87-.88l.24-44.25c0-.21.04-.43.12-.64.07-.13.09-.29.09-.45.51-13.27.7-26.89.58-40.89-.03-2.45,1.89-3.69,2.35-5.8.4-1.83-.83-5.63-3.13-5.92-1.51-.19-3.2-.07-5.07.39-.37.09-.71.32-.9.66-1.19,1.99-2.11,5.59.16,7.34.25.2.43.45.52.76.44,1.68.62,3.42.52,5.2-.71,12.97-.59,22.88-.98,34.14-.16,4.44.36,8.88.09,13.29-.74,11.95-1.04,23.98-.95,36.05.01.96-.45,1.44-1.43,1.44h-.25c-1.04,0-1.47-.52-1.27-1.54.44-2.25.66-4.73.63-7.46-.13-12.08-.66-23.92-.28-35.96.23-6.95-.31-13.89-.11-20.75.17-6.39.19-12.86.04-19.44-.05-2.5.01-5.22.23-8.13.08-1.12.03-2.22-.13-3.32-.31-2.03-1.14-4.69.82-6.18,2.43-1.86,4.91-3.68,7.41-5.46,3.41-2.41,6.2-4.85,9.16-7.53.75-.68,1.78-.96,2.75-.75l8.99,1.82c1.5.29,2.46,1.18,2.89,2.65l2.63,8.77c.24.79.09,1.66-.4,2.33Z"/>
        <path class="cls-1" d="m498.18,313.9c-.28,4.13-.7,7.49-1.23,10.06-1.42,6.82-3.56,13.99-6.45,21.52-1.82,4.41-4.2,8.45-7.15,12.12-4.92,6.12-10.3,11.77-16.15,16.93-6.58,6.49-12.48,13.49-17.69,21.05-2.05,2.94-3.57,5.75-4.59,8.4-1.26,3.28-2.38,6.69-3.38,10.23-.4,1.42-1.82,1.87-3.17,1.42-4.21-1.4-10.16-.07-14.74.83-.59.12-1.16-.25-1.27-.84-.03-.08-.03-.17-.03-.25l1.18-34.88c.11-4.21.57-8.37,1.4-12.49.16-.72.25-1.46.29-2.19.08-1,.35-1.83.43-2.86.39-5.66,1.55-11.18,3.48-16.58.12-2.15.88-4.39,2.27-6.7l1.71-3.76c2.23-4.81,5.18-9.31,8.84-13.48.48-1.26,1.2-.84,2.13,1.23,2.47,2.71,5.48,5,9.04,6.86,2.21,1.15,4.77,1.81,7.69,1.95,4.81.23,8.16-3.45,10.16-7.58.99-2.06,1.22-4.33.67-6.79-1.36-6.12-5.74-8.45-11.46-10.14-5.59-1.66-10.75-.51-15.53,3.2-.37.29-.91.23-1.22-.15-.08-.09-.13-.23-.16-.35l-1.15-5.2c-.2-.88.36-1.77,1.24-1.97.04-.01.07-.01.09-.03,4.15-.68,8.13-2.75,11.94-6.23,3.42-3.1,4.69-7.65,3.74-12.08-.4-1.89-1.4-3.29-3.01-4.19-4-2.25-7.05-1.82-11.09-.64-7.29,2.13-8.96,9.44-9.09,16.05-.01.52-.28.78-.8.76-2.35-.05-4.55-.45-6.57-1.22-.44-.16-.67-.66-.51-1.1.03-.05.05-.12.08-.16,2.53-3.89,3.41-8.06,2.63-12.53-1.35-7.92-9.15-13.08-16.76-8.41-5.43,3.33-4.64,10.6-3.42,15.94.79,3.44,3.4,5.87,6.16,7.74.45.31.57.94.27,1.39-.07.09-.15.19-.24.25-3.82,2.79-7.61,5.87-11.38,9.23-.29.25-.72.27-1.02.01-.13-.12-.21-.35-.21-.67-.17-26.58-.29-53.18-.36-79.81l.05-2.14c.16-1.27.32-2.46.49-3.57.21-1.4.67-2.47,1.38-3.21,1.73-1.85,3.92-2.63,6.57-2.39,10.3.95,19.1,2.73,26.4,5.34,7.3,2.61,13.64,5.79,19.03,9.53,3.17,2.19,6.58,4.97,10.24,8.34,9.6,8.8,17.87,21.33,22.39,32.72,1.04,2.65,2.03,5.7,2.96,9.13.66,2.43,1.47,5.35,2.43,8.77,2.18,7.66,2.98,15.53,2.42,23.58Z"/>
        <path class="cls-1" d="m439.48,452.98s-.05.08-.07.12c-1.06,1.94-3.26,3.22-5.71,3.49-22.63,2.45-44.25,3.33-63.59.51-3.02-.44-5.56-2.38-6.1-5-.33-1.63-.07-3.29.74-4.93.35-.71.83-1.32,1.43-1.85,1.58-1.39,3.92-2.09,6.24-1.82,3.26.37,6.58.68,9.96.92,10.3.75,21.13.9,32.4.56,5.63-.16,11.38-.45,17.22-.86,2.07-.15,3.96.45,5.39,1.48,2.38,1.73,3.5,4.64,2.07,7.37Z"/>
        <path class="cls-1" d="m440.5,431.65s-.05.08-.08.13c-1.04,1.93-3.25,3.21-5.71,3.48-22.61,2.46-44.24,3.33-63.57.51-3.02-.44-5.56-2.38-6.1-5-.35-1.63-.08-3.28.74-4.93,1.26-2.57,4.47-4.04,7.66-3.66,18.19,2.1,38.24,2.09,59.6.64,5.51-.37,9.75,4.48,7.46,8.84Z"/>
        <path class="cls-4" d="m424.74,284.75c.11,2.73-.82,5.35-2.75,7.89-.64.83-1.82.99-2.66.37-3.13-2.29-4.57-6.53-4.44-10.34.08-2.41,1.86-6.24,5-5.08,3.09,1.15,4.71,3.53,4.85,7.15Z"/>
        <path class="cls-4" d="m441.44,296.44c-.11-1.35-.03-2.97.27-4.85.39-2.5.8-4.95,3.56-5.87,2.11-.71,4.12-.87,6.02-.47.7.15,1.24.71,1.36,1.42.59,3.41-.57,5.91-3.53,7.52-1.98,1.07-4.13,2.07-6.47,3.01-.04.01-.08.03-.12.04-.05.01-.09.01-.13.01-.08.01-.16,0-.23-.01-.16-.03-.29-.09-.41-.2-.09-.07-.16-.16-.21-.27-.03-.04-.04-.08-.05-.12-.01-.07-.03-.12-.04-.2Z"/>
        <path class="cls-4" d="m397.88,397.79l.08,17.76c-4.68,1.79-12,.51-17.02-1.15-2.52-4.42,1.26-11.27,3.86-15.15,2.56-2.71,10.54-4.34,13.08-1.46Z"/>
        <path class="cls-2" d="m349.17,270.32c-20.26,7.86-22.42-23.56-9.87-6.49,8.62,5.43,9.41-1.93,12.09-8.2,8.56-2.77,3.26,13.47-2.22,14.68Z"/>
        <path class="cls-2" d="m359.23,372.59c2.44-1.37,5.22,3.14,6.97,4.76,8.61,10.45,20.18-.99,20.22,8.22-9.06,7.74-28.5-.08-27.19-12.98Z"/>
        <path class="cls-2" d="m383.25,252.12c-16.1,14.6-29.37-13.96-11.54-2.52,9.99,1.98,8.1-5.17,8.35-11.98,7-5.65,7.87,11.41,3.19,14.5Z"/>
      </g>
    </g>
  </g>
</svg>